<svg xmlns="http://www.w3.org/2000/svg" xmlns:xlink="http://www.w3.org/1999/xlink" viewBox="0 0 879.46 368.41">
  <defs>
    <style>
      .cls-1, .cls-10, .cls-16, .cls-22, .cls-23 {
        fill: none;
      }

      .cls-2 {
        isolation: isolate;
      }

      .cls-24, .cls-3 {
        fill: #fff;
      }

      .cls-4 {
        fill: #722e24;
      }

      .cls-4, .cls-7 {
        fill-opacity: 0.6;
      }

      .cls-5 {
        fill: #dcd4c9;
        fill-opacity: 0.8;
      }

      .cls-6 {
        fill: #92ada6;
      }

      .cls-6, .cls-8, .cls-9 {
        fill-opacity: 0.7;
      }

      .cls-7 {
        fill: #32494f;
      }

      .cls-8 {
        fill: #ddb24a;
      }

      .cls-9 {
        fill: #c15123;
      }

      .cls-10, .cls-16, .cls-22, .cls-23, .cls-24 {
        stroke: #000;
      }

      .cls-10 {
        stroke-miterlimit: 10;
        stroke-width: 0.24px;
      }

      .cls-11 {
        font-size: 8.28px;
        font-family: DKLemonYellowSun, DK Lemon Yellow Sun;
      }

      .cls-12 {
        letter-spacing: -0.04em;
      }

      .cls-13 {
        letter-spacing: -0.04em;
      }

      .cls-14 {
        letter-spacing: 0em;
      }

      .cls-15 {
        letter-spacing: -0.03em;
      }

      .cls-16, .cls-24 {
        stroke-width: 0.3px;
      }

      .cls-17 {
        letter-spacing: -0.02em;
      }

      .cls-18 {
        letter-spacing: -0.07em;
      }

      .cls-19 {
        opacity: 0.2;
      }

      .cls-20 {
        fill: url(#Nuovo_campione_pattern_1);
      }

      .cls-21 {
        mix-blend-mode: darken;
      }

      .cls-22 {
        stroke-width: 2px;
      }

      .cls-23 {
        stroke-width: 1.18px;
      }

      .cls-25 {
        fill: #fbb03b;
      }

      .cls-26 {
        fill: #999;
      }
    </style>
    <pattern id="Nuovo_campione_pattern_1" data-name="Nuovo campione pattern 1" width="194.81" height="200.59" patternTransform="matrix(0.31, -0.18, 0.18, 0.31, -251.1, -26.14)" patternUnits="userSpaceOnUse" viewBox="0 0 194.81 200.59">
      <rect class="cls-1" width="194.81" height="200.59"/>
      <g>
        <path d="M71.45,346c-.18-11,0-22,.16-33,3,29.89,3.09,59.95,5,90-2.62,0-1.69-2.57-3.27-2.65a17.6,17.6,0,0,0,1.27,6.45c.26.72,0,1.86,1.27,1.69,2.81-.38,5.65-.32,4.91-5-.5-3.11.44-6.45.46-9.68.08-17.78.16-35.53-.49-53.32-.84-23.21-.85-46.41-2.9-69.62-2.1-23.76-4.86-47.56-4.24-71.53,0-1,.35-2.13-1-2.61-1.56.9-1.33,2.56-1.27,4,.44,10.41.72,20.83,1.52,31.21,1.39,18.21,3.42,36.37,4.65,54.59,1.78,26.1,1.2,52.28,2,78.42.31,10.23,0,20.48,0,30.73l-1.93.06c0-2.27.08-4.55,0-6.83-1-25.23-1.4-50.51-4-75.66-.91-9-2.68-17.89-2.82-27-.12-8.55.13-17.14-.71-25.61-1.11-11-3-22-2.36-33.15.28-4.81-1.83-9.27,0-14.56,1.18-3.48-2-8.55-1.74-13.18,0-.91.24-2.15-2.62-2.3,3.92,63.36,6.89,126.61,5.54,190-.15-32.38-6.8-64.12-7.75-96.4-1-32.49-2.06-65-3.1-97.44l-2.61.06a262.39,262.39,0,0,1,1.34,45.6c-2.82-13.55-5.25-27.08-5.72-42.09A7.88,7.88,0,0,0,49.18,204C50,211.5,50.35,219.1,52,226.37c4.34,18.74,5.88,37.69,5.81,56.89-.13,37.11-.84,74.21.5,111.31,0,1.39.65,3.15-2.26,4.51-3.16-34.64-1.32-69.22-5.81-103.27C45.82,262,44.35,227.74,37,194.3a262.85,262.85,0,0,0,3.12,51.4,353.5,353.5,0,0,1,4,52.6c.14,17.44.24,34.87,1.39,52.26s.49,34.58,1.55,51.85c2.59-22.39.31-44.7-.56-67s.67-44.89-2-67.3a6.58,6.58,0,0,1,1.28,3.32c0,10.11,2.16,20,3.17,30,2.69,26.38,2.69,52.88,3.8,79.33.45,10.69-.07,21.42,1.52,32.05.21,1.39-.12,3,2.37,3.95-.17-5.56-1.08-10.62-.46-15.7,2.31.74.71,2.86,2.82,3.76,1.52-16.51.42-32.75.2-49s0-32.77,0-49.15c3.59,31.71,9.12,63.29,5.37,95.63-2.74-2-1.07-5.14-2.25-8-2.43,5.68,1.19,10,1.37,14.74,3.13-4.88,2.06-10.77,3.64-16.38,2.24,4.69-1.72,10.08,2.42,14.24,2.35-2.93.81-6.7,2.26-9.77,1,1.12.19,2.7,1.45,3.4C71.44,382.36,71.75,364.14,71.45,346ZM39.3,214.07l3,28.21C39.9,233.1,38.21,223.76,39.3,214.07Z"/>
        <path d="M82,244.12C81,231,79.75,218,80,204.67c-3.2,2.18-4.71,5.44-3.18,8.48a11.18,11.18,0,0,1,1.08,4.57c.63,7.65,1,15.34,1.76,23,2.48,23.26,4.32,46.56,4.66,70,.39,26.84-.9,53.64-1.48,80.46-.11,5.43.53,10.88.76,16.32a2.83,2.83,0,0,0,2.77,3c2.18.11,1.3-1.74,1.28-3a40.05,40.05,0,0,1,0-4.1,668.73,668.73,0,0,0,.68-106.47c-2.14-27.74-4.1-55.41-3.27-83.25a10.35,10.35,0,0,1,1.75-6c.93,9.59,1.59,17.69,2.51,25.76,1.94,17,1.78,34.1,3.09,51.1a513.45,513.45,0,0,1,1,52.19c-.45,17.93-.19,35.87.46,53.81.27,7.38,1.26,14.74.86,22.15a1.18,1.18,0,0,0,1.33,1.21c1.65-.4,2.87.12,4.35.91,1.32.72,2.65.2,2.66-2.18.05-6.29.79-12.5.39-18.88-.8-13-1.57-25.94-1.12-38.94,0-1-.54-2.5,1.76-2.87-.42,19.87,1,39.56,2,59.27-1.88-70.55.07-141.21-7.17-211.6.09,39.77,6.46,79.39,3.77,119.31-1-.28-.93-.79-1-1.31-2.39-16.56-1.53-33.43-4.48-49.93a122.47,122.47,0,0,1-1.58-16.25c-.74-16.2-1.63-32.4-2.48-48.6,0-.9.22-2.62-1.18-2.06-2.31.92-5.87-1-6.51,4-1.64-2.43-.31-4.82-2.6-6.29C82.68,213.65,85.09,229,82,244.12ZM95.82,398.58c-1.95-47.77,1.51-95.66-3.06-143.37C99.48,277.32,101.63,381.16,95.82,398.58ZM85.78,290c2.18,34.34,3.93,68.67-.63,103C84.85,358.65,87.66,324.35,85.78,290ZM102,400.29c.06,1.33.2,3.12-1.64,3-1.63-.12-1-1.88-1-2.92,0-6.73,0-13.46,0-20.2h1.7C101.37,386.88,101.7,393.58,102,400.29ZM91.6,234.11c-1.33-7.62-2.45-15.26-1.24-23C92.77,218.63,91.55,226.41,91.6,234.11Z"/>
        <path d="M1.46,198.16c2,1.74.53,4.14,1.73,6.11,1.71-6.41-.69-13.1,2.06-19.18,1.73,5.8.17,11.62.62,17.44,1.73.37.23-2.42,2.61-2.2q5.32,101.34,3,203c-2.13-.57-1.59-2.74-1.74-4.48-1.12-13.34.66-26.63.7-40,.06-16.41-.35-32.82-.44-49.23s.52-33.08-.63-49.54c-1.25-18-1.61-36.1-2.64-54.18-2.28,4-1.66,8.7-1.59,12.8.24,14.12-.24,28.22-.4,42.32-.41,35.72,1.75,71.37,2.58,107.05.21,9.28.39,18.59-.22,27.83a26.54,26.54,0,0,1-2.23,8.83c-1.27-3.12-3.32-4.33-1.65-8,1.35-3-.3-7.33-.29-11.08,0-9.06.21-18.12.39-27.17.33-16.77-1-33.48-1.31-50.22-.3-14.51,1.43-28.95.55-43.53-1.16-19.06-1.3-38.19-1.79-57.29C.71,204.43-1.32,201.28,1.46,198.16Z"/>
        <path d="M136.44,409.84c-3.36-61.88-5.72-123.79-7.71-185.74.1,29.93,1.1,59.89-.36,89.73-1.46,30,3.84,59.7,2.9,91.14-8.36-64-1.35-127-6.91-189.62-2,32.22-.43,64.41,0,96.6.45,32.43.49,64.86,2.77,98-3.1-1.84-2.29-4.2-2.36-5.93q-2-49.22-2.11-98.48c-.08-18.45-1.38-36.9-1.51-55.35-.08-13.11-.68-26.27.78-39.34.32-2.89-2.08-6.28,1.43-9.09,1.68,3.18,1.26,6.29.89,9.45,2.23-1.74.76-4.75,2.38-6.64,2.13,1.15.41,3.36,1.86,4.81,2.6-2.71-1.28-7.37,3.57-9.59C130.3,269.91,135.14,339.82,136.44,409.84Z"/>
        <path d="M15.41,194.13c-.39,7.67,4.34,13.05,5.49,20-2.58-.19-1.48-2.44-2.66-2.94-.73,0-.73.58-.73,1-.2,19.13-.23,38.25,1.37,57.35.48,5.73-.25,11.57-.43,17.36-.54,17.11.28,34.18.65,51.28.39,18.27.44,36.55.47,54.82a32.37,32.37,0,0,0,1.19,7.48c.24,1,.35,2.72,2,2.22a2.34,2.34,0,0,0,1.53-2.84c-2.23-16-.35-32-1-48-.95-22.48-1.64-45-.77-67.46.53-13.65-.58-27.11-1.24-40.65-.22-4.66-1-9.3-1-14,2.57,5.31,2.51,11.12,3,16.81,1.64,20.47.8,41,.83,61.48,0,29.05,1,58.09,1.5,87.14.06,3.84,2.93,5.28,5,7.94,1.55-54.33-4-108-2.54-161.82,1.91,2.76,1.06,5.84.79,8.46-1.54,15,1.28,29.82,1.42,44.74.17,18.27,1.15,36.53,1.21,54.83.05,14,2.34,27.91,1.51,42-.23,3.91-.29,7.84-.3,11.76,0,1,.45,2.12-.68,2.68s-2-.35-2.44-1.15c-1.93-3.36-3.93-3-6.59-.77-1.89,1.61-3.81,3.07-4.53-1.69-3.19-20.93-.49-41.93-1.15-62.88-.52-16.55-2.21-33.16-.69-49.66,1.51-16.32-1.31-32.39-1.08-48.59.19-13.78,1-27.57-1.87-41.2a17.19,17.19,0,0,1,0-4.06C13.65,195.43,14.09,195.23,15.41,194.13Z"/>
        <path d="M26.68,195.44c-.73.33-.78,1-.77,1.68.08,9.07,2.7,18,1.69,27.11a4.39,4.39,0,0,0,.78,2.4c2.51,4.26,2.63,8.93,2.88,13.78.54,10.43,0,20.89.56,31.26,1.25,22.72,2.4,45.42,2.81,68.18.31,16.66,1.74,33.3,2.53,49.95.25,5.35,0,10.72,0,16.08l2.11-.06c.2-32.29-4.45-64.46-2.81-96.79,4,32.08,3.4,64.43,5.23,97.57C46.58,392.47,32.91,205.76,26.68,195.44Zm9,94.89.45,0v16.61l-.45,0Z"/>
        <path d="M44.65,199c7,40.52,7.73,81.16,11.23,121.52C50.65,281,49.44,241.07,43,201.73,42.88,201,42.85,200,44.65,199Z"/>
      </g>
      <g>
        <path d="M71.45,145.36c-.18-11,0-22,.16-33,3,29.88,3.09,60,5,90-2.62,0-1.69-2.58-3.27-2.66a17.6,17.6,0,0,0,1.27,6.45c.26.73,0,1.86,1.27,1.69,2.81-.37,5.65-.32,4.91-5-.5-3.12.44-6.45.46-9.69.08-17.77.16-35.53-.49-53.31-.84-23.22-.85-46.41-2.9-69.62C75.71,46.48,73,22.69,73.57-1.29c0-1,.35-2.12-1-2.6C71-3,71.2-1.34,71.26.09c.44,10.4.72,20.83,1.52,31.2,1.39,18.21,3.42,36.38,4.65,54.6,1.78,26.09,1.2,52.28,2,78.41.31,10.24,0,20.49,0,30.73l-1.93.07c0-2.28.08-4.56,0-6.83-1-25.24-1.4-50.51-4-75.66-.91-9-2.68-17.89-2.82-27-.12-8.54.13-17.14-.71-25.61-1.11-11-3-22-2.36-33.14.28-4.81-1.83-9.27,0-14.56,1.18-3.49-2-8.55-1.74-13.18,0-.92.24-2.16-2.62-2.31,3.92,63.36,6.89,126.61,5.54,190-.15-32.37-6.8-64.12-7.75-96.4C60.14,58,59,25.49,58-7l-2.61.05a262.42,262.42,0,0,1,1.34,45.6C53.9,25.13,51.47,11.59,51-3.42a7.88,7.88,0,0,0-1.82,6.85C50,10.9,50.35,18.51,52,25.77c4.34,18.74,5.88,37.7,5.81,56.9-.13,37.1-.84,74.21.5,111.3,0,1.39.65,3.16-2.26,4.52-3.16-34.64-1.32-69.22-5.81-103.28C45.82,61.4,44.35,27.15,37-6.29a263,263,0,0,0,3.12,51.4,353.5,353.5,0,0,1,4,52.6c.14,17.43.24,34.86,1.39,52.26s.49,34.58,1.55,51.84c2.59-22.38.31-44.7-.56-67s.67-44.9-2-67.3A6.55,6.55,0,0,1,45.8,70.8c0,10.11,2.16,20,3.17,30,2.69,26.38,2.69,52.88,3.8,79.33.45,10.69-.07,21.43,1.52,32.06.21,1.38-.12,3,2.37,3.94-.17-5.56-1.08-10.61-.46-15.7,2.31.74.71,2.86,2.82,3.77,1.52-16.51.42-32.76.2-49s0-32.76,0-49.14c3.59,31.71,9.12,63.29,5.37,95.63-2.74-2-1.07-5.14-2.25-8-2.43,5.67,1.19,10,1.37,14.74,3.13-4.89,2.06-10.78,3.64-16.39,2.24,4.7-1.72,10.08,2.42,14.25,2.35-2.93.81-6.7,2.26-9.77,1,1.11.19,2.7,1.45,3.4C71.44,181.77,71.75,163.55,71.45,145.36ZM39.3,13.47l3,28.21C39.9,32.51,38.21,23.17,39.3,13.47Z"/>
        <path d="M82,43.53c-1-13.1-2.23-26.17-2-39.45-3.2,2.17-4.71,5.43-3.18,8.48a11.14,11.14,0,0,1,1.08,4.56c.63,7.66,1,15.35,1.76,23,2.48,23.26,4.32,46.56,4.66,70,.39,26.84-.9,53.64-1.48,80.45-.11,5.43.53,10.88.76,16.33a2.83,2.83,0,0,0,2.77,3c2.18.11,1.3-1.75,1.28-3a40.06,40.06,0,0,1,0-4.1,668.73,668.73,0,0,0,.68-106.47C86.2,68.54,84.24,40.86,85.07,13a10.38,10.38,0,0,1,1.75-6c.93,9.59,1.59,17.7,2.51,25.77,1.94,17,1.78,34.09,3.09,51.09a513.51,513.51,0,0,1,1,52.19c-.45,17.93-.19,35.87.46,53.82.27,7.37,1.26,14.74.86,22.15a1.17,1.17,0,0,0,1.33,1.2c1.65-.39,2.87.13,4.35.92,1.32.71,2.65.19,2.66-2.18.05-6.29.79-12.51.39-18.89-.8-12.95-1.57-25.93-1.12-38.94,0-1-.54-2.5,1.76-2.86-.42,19.86,1,39.55,2,59.26-1.88-70.54.07-141.21-7.17-211.59.09,39.76,6.46,79.38,3.77,119.31-1-.29-.93-.79-1-1.31C99.32,100.37,100.18,83.5,97.23,67a122.64,122.64,0,0,1-1.58-16.25c-.74-16.21-1.63-32.4-2.48-48.6,0-.91.22-2.63-1.18-2.07-2.31.93-5.87-.95-6.51,4-1.64-2.43-.31-4.82-2.6-6.28C82.68,13.05,85.09,28.37,82,43.53ZM95.82,198c-1.95-47.76,1.51-95.65-3.06-143.36C99.48,76.72,101.63,180.57,95.82,198Zm-10-108.56c2.18,34.33,3.93,68.67-.63,103C84.85,158.06,87.66,123.75,85.78,89.42ZM102,199.7c.06,1.32.2,3.12-1.64,3-1.63-.12-1-1.88-1-2.93,0-6.73,0-13.46,0-20.19h1.7C101.37,186.29,101.7,193,102,199.7ZM91.6,33.52c-1.33-7.63-2.45-15.27-1.24-23.05C92.77,18,91.55,25.81,91.6,33.52Z"/>
        <path d="M1.46-2.43c2,1.74.53,4.14,1.73,6.11C4.9-2.73,2.5-9.42,5.25-15.5,7-9.71,5.42-3.89,5.87,1.94,7.6,2.3,6.1-.49,8.48-.27q5.32,101.34,3,203c-2.13-.57-1.59-2.74-1.74-4.48-1.12-13.35.66-26.64.7-40,.06-16.42-.35-32.83-.44-49.23S10.54,76,9.39,59.51c-1.25-18-1.61-36.09-2.64-54.17-2.28,4-1.66,8.7-1.59,12.79.24,14.12-.24,28.22-.4,42.33-.41,35.72,1.75,71.36,2.58,107,.21,9.27.39,18.59-.22,27.83a26.43,26.43,0,0,1-2.23,8.82c-1.27-3.11-3.32-4.33-1.65-8,1.35-3-.3-7.34-.29-11.08,0-9.06.21-18.12.39-27.18.33-16.76-1-33.48-1.31-50.22-.3-14.5,1.43-28.95.55-43.52C1.42,45.1,1.28,26,.79,6.87.71,3.84-1.32.69,1.46-2.43Z"/>
        <path d="M136.44,209.25c-3.36-61.88-5.72-123.8-7.71-185.74.1,29.93,1.1,59.88-.36,89.73-1.46,30,3.84,59.69,2.9,91.13-8.36-64-1.35-127-6.91-189.61-2,32.21-.43,64.4,0,96.6.45,32.42.49,64.85,2.77,98-3.1-1.85-2.29-4.2-2.36-5.93q-2-49.21-2.11-98.49c-.08-18.45-1.38-36.89-1.51-55.35-.08-13.1-.68-26.26.78-39.34.32-2.89-2.08-6.27,1.43-9.08,1.68,3.17,1.26,6.28.89,9.45,2.23-1.74.76-4.76,2.38-6.65,2.13,1.16.41,3.36,1.86,4.81,2.6-2.7-1.28-7.36,3.57-9.58C130.3,69.31,135.14,139.22,136.44,209.25Z"/>
        <path d="M15.41-6.47C15,1.2,19.75,6.59,20.9,13.52c-2.58-.2-1.48-2.45-2.66-2.94-.73-.06-.73.58-.73,1-.2,19.13-.23,38.25,1.37,57.35.48,5.73-.25,11.57-.43,17.36-.54,17.1.28,34.18.65,51.27.39,18.27.44,36.55.47,54.83a32.45,32.45,0,0,0,1.19,7.48c.24,1,.35,2.72,2,2.21a2.32,2.32,0,0,0,1.53-2.83c-2.23-16-.35-32-1-48-.95-22.48-1.64-45-.77-67.47.53-13.64-.58-27.11-1.24-40.64-.22-4.67-1-9.31-1-14,2.57,5.32,2.51,11.13,3,16.82,1.64,20.47.8,41,.83,61.47,0,29.05,1,58.1,1.5,87.15.06,3.83,2.93,5.28,5,7.94,1.55-54.34-4-108-2.54-161.82,1.91,2.76,1.06,5.83.79,8.45-1.54,15,1.28,29.82,1.42,44.74.17,18.28,1.15,36.54,1.21,54.83.05,14,2.34,27.91,1.51,42-.23,3.91-.29,7.84-.3,11.76,0,1,.45,2.12-.68,2.67s-2-.34-2.44-1.14c-1.93-3.37-3.93-3.05-6.59-.78-1.89,1.61-3.81,3.07-4.53-1.68-3.19-20.93-.49-41.93-1.15-62.88C16.8,122,15.11,105.4,16.63,88.9c1.51-16.33-1.31-32.39-1.08-48.59.19-13.78,1-27.57-1.87-41.2a17.21,17.21,0,0,1,0-4.06C13.65-5.17,14.09-5.36,15.41-6.47Z"/>
        <path d="M143.55,28.83q1.55,32.49,3,65c.68,15.34,1.45,30.67,1.36,46-.12,19.46,3,38.82,1.67,58.32-.18,2.74-.17,5.49,1.15,8,.53,1-.84,3.33,1.49,2.91,1.45-.25.69-2.1.64-3.09-.71-13.09-1.59-26.17-2.32-39.26-1.57-28.16-1.14-56.4-3-84.56-.75-11.41-1.57-22.84-1.61-34.27,0-10-1.92-20,1.59-29.93,1.34-3.79.22-8.52.22-12.82l-1.65.05c-1.05,5.43-.28,11.18-2.43,17.88-.45-6.22-3-10.65-2.18-15.79.21-1.26.22-3.38-1.84-3.43-1.66,0-3.22.55-3.22,2.89,0,1.52-.46,3.06-.32,4.56,1.34,14.34.39,28.71,0,43-.55,21-1.48,42.11,0,63,2,29.5,2,59.08,4.38,88.56.44,5.43,3.45,3.17,5,3.39,2.22.33,1.08-2.32,1-3.49-1.08-12.58-2.56-25.13-3.48-37.73-1.89-25.93-1.16-51.94-1.9-77.91-.18-6.33.55-12.61.32-19-.59-16.53-1.22-33.08,1.2-49.81C142.86,23.89,143.43,26.35,143.55,28.83ZM140,140.65c-5.1-40-1.55-80.15-1.47-120.26C139.76,60.45,138.79,100.56,140,140.65Zm4.64,61.11a3,3,0,0,1,.08.51c-.09,1.39.87,3.56-1.13,3.75-1.57.15-1.3-2-1.42-3.25-.52-5.6-1.32-11.2-1.4-16.8-.16-10.92-1.57-21.81-.71-32.12C141.6,169.25,142,185.62,144.6,201.76Z"/>
        <path d="M26.68-5.15c-.73.32-.78,1-.77,1.68.08,9.06,2.7,18,1.69,27.11a4.41,4.41,0,0,0,.78,2.4C30.89,30.3,31,35,31.26,39.82c.54,10.43,0,20.88.56,31.26,1.25,22.71,2.4,45.41,2.81,68.17.31,16.66,1.74,33.3,2.53,50,.25,5.34,0,10.71,0,16.07l2.11-.06c.2-32.28-4.45-64.46-2.81-96.79,4,32.08,3.4,64.44,5.23,97.58C46.58,191.88,32.91,5.16,26.68-5.15Zm9,94.89.45,0v16.61l-.45,0Z"/>
        <path d="M185.83,29.65c3.2-1.2,2.46-4.41,1.56-5.95-1.66-2.81-.27-4.93,0-8a9.3,9.3,0,0,1,2.82,8.68c-1.39,5.8-.77,11.48-.64,17.26.51,22,.73,44.09,1.33,66.14.46,16.91,2.23,33.78,1.8,50.71-.37,14.53-.13,29,2,43.36a11.65,11.65,0,0,1-.81,6.12,46.18,46.18,0,0,1-3.12-16.71c0-15,.2-30.09-.26-45.13-.82-27-2.28-53.94-2.24-80.94a251.15,251.15,0,0,0-2.34-35.65Z"/>
        <path d="M161.57,211.6c-2.73-27.58-3.6-54.37-5.34-81.1-1-15.9,0-31.74.23-47.61.31-19.63-1.44-39.22-2.58-58.82-.29-4.95-1.28-11.65,2.85-16.73-.65,7,2.65,13.58.2,21-1.55,4.72-.56,10.51-.11,15.76a435.79,435.79,0,0,1,.7,59.38c-1.11,21.88,1.63,43.67,2.7,65.51.52,10.56,1.11,21.12,2.07,31.65C162.6,204.13,164.67,207.54,161.57,211.6Z"/>
        <path d="M171.83,9.54c-2.68,69,.95,137,1.74,205.08-1-25.65-3-51.23-3.2-76.89-.26-32.47-1-64.93-1.6-97.39-.15-7.6,1.77-15.22-.75-22.84C167.26,15.17,167.91,12.11,171.83,9.54Z"/>
        <path d="M185.92,29.56c-.78.61-.9-2.38-1.89-.39a3,3,0,0,0-.07,1.52c1.95,16.22-1.12,32.38-.63,48.52.73,24.4.31,48.82,1.74,73.21.63,10.71,0,21.49,0,32.25a151.12,151.12,0,0,0,1.46,22.89c.09.58.61,1.47-.4,1.62-1.38.21-1.3-.76-1.42-1.91-1.43-14.09-2.42-28.27-1.52-42.37,1-14.93-1-29.67-1.1-44.5-.14-19-.84-38,.13-56.89.66-13-.14-25.92,0-38.87a27.12,27.12,0,0,0-.89-5.53c-.71-3.48-.59-6.65,3.47-9.34-.53,7,.88,13.38,1.06,19.88Z"/>
        <path d="M177.05,14.39c0,9-.62,18,.14,26.93,1.19,14-1.38,27.84-1.56,41.75-.14,9.7,1.23,19.4,1.34,29.11.23,20.15-.3,40.31,1.18,60.43C179,183.82,180,195,180.9,206.23c.09,1.06,1,2.69-.73,2.87-1.46.15-1.34-1.7-1.93-2.62-2.22-3.51,1.34-6.49.07-10.09s-.82-8.09-1.19-12.17c-2.33-25.9-1.73-51.88-2.17-77.84-.19-10.91-2.09-21.92-.54-32.72,2.7-18.78.16-37.48.53-56.2a17.84,17.84,0,0,1,.29-2.52c0-.26.31-.47.47-.7Z"/>
        <path d="M113.68,4.92c1.58,68.68,4.51,137.35,5.08,206.07C116.7,142.31,113.6,73.66,113.68,4.92Z"/>
        <path d="M151.21,5.27q.16,101.93,6.47,203.56C153.49,201.76,147,16.1,151.21,5.27Z"/>
        <path d="M166.71,208.94C163.16,169.56,163.94,130,164,90.6c0-27.73-1.2-55.49.13-83.24C166.19,74.55,164.56,141.76,166.71,208.94Z"/>
        <path d="M106,5.41c2.46,65.63,4.92,131.5,7.37,197C110,196.65,103.15,11.45,106,5.41Z"/>
        <path d="M44.65-1.63c7,40.53,7.73,81.16,11.23,121.53C50.65,80.41,49.44,40.48,43,1.13,42.88.37,42.85-.57,44.65-1.63Z"/>
      </g>
      <g>
        <path d="M71.45-55.24c-.18-11,0-22,.16-33,3,29.88,3.09,59.94,5,90-2.62,0-1.69-2.57-3.27-2.65a17.6,17.6,0,0,0,1.27,6.45c.26.73,0,1.86,1.27,1.69,2.81-.38,5.65-.32,4.91-5-.5-3.12.44-6.45.46-9.69.08-17.77.16-35.53-.49-53.32-.84-23.21-.85-46.41-2.9-69.61-2.1-23.77-4.86-47.57-4.24-71.54,0-1,.35-2.12-1-2.61-1.56.91-1.33,2.56-1.27,4,.44,10.4.72,20.82,1.52,31.2,1.39,18.21,3.42,36.37,4.65,54.59,1.78,26.1,1.2,52.28,2,78.42.31,10.23,0,20.49,0,30.73l-1.93.07c0-2.28.08-4.56,0-6.84-1-25.23-1.4-50.51-4-75.65-.91-9-2.68-17.9-2.82-27-.12-8.54.13-17.14-.71-25.61-1.11-11-3-22-2.36-33.15.28-4.81-1.83-9.27,0-14.56,1.18-3.48-2-8.55-1.74-13.17,0-.92.24-2.16-2.62-2.31,3.92,63.36,6.89,126.61,5.54,190-.15-32.38-6.8-64.12-7.75-96.4-1-32.48-2.06-65-3.1-97.44l-2.61.06a262.39,262.39,0,0,1,1.34,45.6C53.9-175.46,51.47-189,51-204a7.88,7.88,0,0,0-1.82,6.85c.82,7.47,1.17,15.08,2.85,22.34,4.34,18.74,5.88,37.7,5.81,56.89-.13,37.11-.84,74.21.5,111.31,0,1.39.65,3.15-2.26,4.51-3.16-34.64-1.32-69.22-5.81-103.27C45.82-139.2,44.35-173.45,37-206.89a262.85,262.85,0,0,0,3.12,51.4,353.73,353.73,0,0,1,4,52.61c.14,17.43.24,34.86,1.39,52.26S46-16,47.07,1.22c2.59-22.39.31-44.7-.56-67s.67-44.89-2-67.3a6.58,6.58,0,0,1,1.28,3.33c0,10.1,2.16,20,3.17,30,2.69,26.38,2.69,52.88,3.8,79.33C53.22-9.81,52.7.92,54.29,11.55c.21,1.39-.12,3,2.37,3.95C56.49,9.94,55.58,4.88,56.2-.2c2.31.74.71,2.86,2.82,3.77,1.52-16.52.42-32.76.2-49s0-32.77,0-49.15c3.59,31.71,9.12,63.29,5.37,95.64-2.74-2-1.07-5.15-2.25-8C59.86-1.25,63.48,3,63.66,7.82,66.79,2.93,65.72-3,67.3-8.57c2.24,4.7-1.72,10.08,2.42,14.25C72.07,2.75,70.53-1,72-4.1c1,1.12.19,2.7,1.45,3.4C71.44-18.82,71.75-37,71.45-55.24ZM39.3-187.12l3,28.21C39.9-168.08,38.21-177.42,39.3-187.12Z"/>
        <path d="M82-157.06c-1-13.11-2.23-26.17-2-39.46-3.2,2.18-4.71,5.44-3.18,8.49a11.1,11.1,0,0,1,1.08,4.56c.63,7.65,1,15.34,1.76,23,2.48,23.26,4.32,46.56,4.66,70,.39,26.83-.9,53.63-1.48,80.45-.11,5.43.53,10.88.76,16.32a2.84,2.84,0,0,0,2.77,3c2.18.1,1.3-1.75,1.28-3a40.25,40.25,0,0,1,0-4.11,668.73,668.73,0,0,0,.68-106.47c-2.14-27.74-4.1-55.41-3.27-83.25a10.36,10.36,0,0,1,1.75-6c.93,9.59,1.59,17.69,2.51,25.76,1.94,17,1.78,34.1,3.09,51.1a513.45,513.45,0,0,1,1,52.19c-.45,17.93-.19,35.87.46,53.82.27,7.37,1.26,14.74.86,22.14a1.18,1.18,0,0,0,1.33,1.21,5.72,5.72,0,0,1,4.35.92c1.32.71,2.65.19,2.66-2.19.05-6.29.79-12.5.39-18.88-.8-12.95-1.57-25.94-1.12-38.94,0-1-.54-2.5,1.76-2.87-.42,19.87,1,39.56,2,59.27-1.88-70.55.07-141.21-7.17-211.6.09,39.77,6.46,79.39,3.77,119.31-1-.28-.93-.79-1-1.31-2.39-16.55-1.53-33.42-4.48-49.92a122.8,122.8,0,0,1-1.58-16.25C94.91-166,94-182.25,93.17-198.45c0-.9.22-2.62-1.18-2.06-2.31.92-5.87-1-6.51,4-1.64-2.43-.31-4.82-2.6-6.29C82.68-187.54,85.09-172.23,82-157.06ZM95.82-2.61C93.87-50.38,97.33-98.27,92.76-146,99.48-123.87,101.63-20,95.82-2.61Zm-10-108.57c2.18,34.34,3.93,68.68-.63,103C84.85-42.54,87.66-76.84,85.78-111.18ZM102-.9c.06,1.33.2,3.13-1.64,3-1.63-.12-1-1.88-1-2.92,0-6.73,0-13.46,0-20.19h1.7C101.37-14.31,101.7-7.6,102-.9ZM91.6-167.08c-1.33-7.62-2.45-15.26-1.24-23C92.77-182.56,91.55-174.78,91.6-167.08Z"/>
        <path d="M1.46-203c2,1.74.53,4.13,1.73,6.1,1.71-6.41-.69-13.1,2.06-19.17,1.73,5.79.17,11.61.62,17.44,1.73.36.23-2.43,2.61-2.21q5.32,101.34,3,203C9.37,1.56,9.91-.61,9.76-2.35c-1.12-13.34.66-26.63.7-40,.06-16.41-.35-32.82-.44-49.23s.52-33.08-.63-49.54c-1.25-18-1.61-36.09-2.64-54.18-2.28,4-1.66,8.7-1.59,12.8.24,14.12-.24,28.22-.4,42.33-.41,35.72,1.75,71.36,2.58,107,.21,9.28.39,18.59-.22,27.83A26.48,26.48,0,0,1,4.89,3.57C3.62.46,1.57-.76,3.24-4.43c1.35-3-.3-7.34-.29-11.09,0-9.06.21-18.11.39-27.17.33-16.77-1-33.48-1.31-50.22-.3-14.5,1.43-28.95.55-43.52-1.16-19.07-1.3-38.2-1.79-57.3C.71-196.75-1.32-199.91,1.46-203Z"/>
        <path d="M136.44,8.65c-3.36-61.87-5.72-123.79-7.71-185.74.1,29.93,1.1,59.89-.36,89.74-1.46,30,3.84,59.69,2.9,91.13-8.36-64-1.35-127-6.91-189.62-2,32.22-.43,64.41,0,96.61.45,32.42.49,64.85,2.77,98-3.1-1.84-2.29-4.2-2.36-5.92q-2-49.23-2.11-98.49c-.08-18.45-1.38-36.9-1.51-55.35-.08-13.11-.68-26.26.78-39.34.32-2.89-2.08-6.28,1.43-9.08,1.68,3.17,1.26,6.28.89,9.45,2.23-1.75.76-4.76,2.38-6.65,2.13,1.15.41,3.36,1.86,4.81,2.6-2.7-1.28-7.36,3.57-9.59C130.3-131.28,135.14-61.37,136.44,8.65Z"/>
        <path d="M15.41-207.06c-.39,7.67,4.34,13.05,5.49,20-2.58-.2-1.48-2.45-2.66-3-.73,0-.73.59-.73,1-.2,19.14-.23,38.26,1.37,57.36.48,5.73-.25,11.57-.43,17.36-.54,17.1.28,34.18.65,51.27.39,18.27.44,36.55.47,54.82A32.54,32.54,0,0,0,20.76-.71c.24,1,.35,2.71,2,2.21A2.34,2.34,0,0,0,24.3-1.34c-2.23-16-.35-32-1-48-.95-22.48-1.64-45-.77-67.46.53-13.64-.58-27.11-1.24-40.64-.22-4.67-1-9.31-1-14.05,2.57,5.31,2.51,11.12,3,16.81,1.64,20.48.8,41,.83,61.48,0,29.05,1,58.1,1.5,87.14.06,3.84,2.93,5.28,5,7.94,1.55-54.33-4-108-2.54-161.81,1.91,2.76,1.06,5.83.79,8.45-1.54,15,1.28,29.82,1.42,44.74.17,18.28,1.15,36.53,1.21,54.83C31.55-38,33.84-24,33-10c-.23,3.91-.29,7.84-.3,11.76,0,1,.45,2.12-.68,2.68s-2-.35-2.44-1.15C27.66-.06,25.66.26,23,2.53,21.11,4.14,19.19,5.6,18.47.84,15.28-20.09,18-41.09,17.32-62c-.52-16.55-2.21-33.16-.69-49.65,1.51-16.33-1.31-32.4-1.08-48.6.19-13.77,1-27.56-1.87-41.19a17.28,17.28,0,0,1,0-4.07C13.65-205.76,14.09-205.95,15.41-207.06Z"/>
        <path d="M143.55-171.77q1.55,32.51,3,65c.68,15.33,1.45,30.66,1.36,46-.12,19.46,3,38.82,1.67,58.32-.18,2.73-.17,5.48,1.15,8,.53,1-.84,3.32,1.49,2.91,1.45-.26.69-2.11.64-3.1-.71-13.09-1.59-26.16-2.32-39.25-1.57-28.16-1.14-56.4-3-84.56-.75-11.41-1.57-22.85-1.61-34.28,0-9.95-1.92-20,1.59-29.93,1.34-3.78.22-8.51.22-12.81l-1.65,0c-1.05,5.44-.28,11.18-2.43,17.89-.45-6.22-3-10.65-2.18-15.8.21-1.25.22-3.37-1.84-3.42-1.66,0-3.22.54-3.22,2.89,0,1.52-.46,3.06-.32,4.55,1.34,14.35.39,28.72,0,43-.55,21-1.48,42.12,0,63.05,2,29.49,2,59.08,4.38,88.56.44,5.42,3.45,3.17,5,3.39,2.22.33,1.08-2.33,1-3.49-1.08-12.59-2.56-25.14-3.48-37.73C141-58.42,141.72-84.44,141-110.4c-.18-6.34.55-12.61.32-19-.59-16.52-1.22-33.08,1.2-49.8C142.86-176.7,143.43-174.25,143.55-171.77ZM140-59.94c-5.1-40-1.55-80.15-1.47-120.26C139.76-140.14,138.79-100,140-59.94ZM144.6,1.17a3.05,3.05,0,0,1,.08.5c-.09,1.39.87,3.57-1.13,3.76-1.57.15-1.3-2-1.42-3.26-.52-5.6-1.32-11.19-1.4-16.8-.16-10.92-1.57-21.81-.71-32.11C141.6-31.34,142-15,144.6,1.17Z"/>
        <path d="M26.68-205.75c-.73.33-.78,1-.77,1.68.08,9.07,2.7,18,1.69,27.11a4.39,4.39,0,0,0,.78,2.4c2.51,4.27,2.63,8.93,2.88,13.78.54,10.43,0,20.89.56,31.26,1.25,22.72,2.4,45.42,2.81,68.18.31,16.66,1.74,33.3,2.53,50,.25,5.35,0,10.72,0,16.08l2.11-.06c.2-32.29-4.45-64.46-2.81-96.79,4,32.08,3.4,64.43,5.23,97.58C46.58-8.71,32.91-195.43,26.68-205.75Zm9,94.89.45,0v16.61l-.45,0Z"/>
        <path d="M185.83-170.95c3.2-1.19,2.46-4.41,1.56-5.94-1.66-2.81-.27-4.93,0-8a9.32,9.32,0,0,1,2.82,8.69c-1.39,5.8-.77,11.48-.64,17.25.51,22.05.73,44.1,1.33,66.14.46,16.91,2.23,33.79,1.8,50.72-.37,14.52-.13,29,2,43.36a11.67,11.67,0,0,1-.81,6.12,46.25,46.25,0,0,1-3.12-16.71c0-15,.2-30.1-.26-45.13-.82-27-2.28-53.95-2.24-80.95A251.11,251.11,0,0,0,185.92-171Z"/>
        <path d="M161.57,11c-2.73-27.58-3.6-54.37-5.34-81.11-1-15.89,0-31.73.23-47.6.31-19.64-1.44-39.23-2.58-58.83-.29-4.95-1.28-11.65,2.85-16.72-.65,7,2.65,13.58.2,21-1.55,4.71-.56,10.5-.11,15.75a435.81,435.81,0,0,1,.7,59.38c-1.11,21.88,1.63,43.68,2.7,65.51.52,10.56,1.11,21.13,2.07,31.65C162.6,3.54,164.67,7,161.57,11Z"/>
        <path d="M171.83-191.06c-2.68,69,.95,137,1.74,205.08-1-25.64-3-51.22-3.2-76.89-.26-32.46-1-64.92-1.6-97.38-.15-7.6,1.77-15.23-.75-22.85C167.26-185.43,167.91-188.49,171.83-191.06Z"/>
        <path d="M185.92-171c-.78.61-.9-2.39-1.89-.39a3,3,0,0,0-.07,1.52c1.95,16.21-1.12,32.37-.63,48.52.73,24.4.31,48.82,1.74,73.2.63,10.71,0,21.5,0,32.25A151.17,151.17,0,0,0,186.53,7c.09.58.61,1.47-.4,1.62-1.38.21-1.3-.76-1.42-1.92-1.43-14.09-2.42-28.26-1.52-42.36,1-14.93-1-29.67-1.1-44.51-.14-19-.84-38,.13-56.89.66-13-.14-25.92,0-38.87a27,27,0,0,0-.89-5.52c-.71-3.48-.59-6.65,3.47-9.35-.53,7,.88,13.39,1.06,19.88Z"/>
        <path d="M177.05-186.21c0,9-.62,18,.14,26.93,1.19,14.06-1.38,27.85-1.56,41.76-.14,9.69,1.23,19.4,1.34,29.11.23,20.15-.3,40.31,1.18,60.43C179-16.77,180-5.57,180.9,5.63c.09,1.06,1,2.69-.73,2.88-1.46.15-1.34-1.7-1.93-2.62C176,2.38,179.58-.6,178.31-4.2s-.82-8.1-1.19-12.18c-2.33-25.9-1.73-51.88-2.17-77.83-.19-10.91-2.09-21.93-.54-32.72,2.7-18.78.16-37.48.53-56.2a18,18,0,0,1,.29-2.53c0-.25.31-.47.47-.7Z"/>
        <path d="M113.68-195.67c1.58,68.68,4.51,137.35,5.08,206.07C116.7-58.28,113.6-126.93,113.68-195.67Z"/>
        <path d="M151.21-195.33q.16,101.94,6.47,203.56C153.49,1.17,147-184.5,151.21-195.33Z"/>
        <path d="M166.71,8.34C163.16-31,163.94-70.55,164-110c0-27.74-1.2-55.5.13-83.24C166.19-126,164.56-58.83,166.71,8.34Z"/>
        <path d="M106-195.18c2.46,65.63,4.92,131.49,7.37,197C110-3.94,103.15-189.14,106-195.18Z"/>
      </g>
    </pattern>
  </defs>
  <title>logo_sfondo_chiaro</title>
  <g class="cls-2">
    <g id="precise_sfondo_chiaro" data-name="precise sfondo chiaro">
      <g>
        <path class="cls-3" d="M1192.69,411.26c0-3.36-.11-7.52-.17-10.87,3.24.3,8.2,1.22,14-.09,4.57-1,9.16-2,13-5.61q4.74-4.43,6.51-13t1.78-23.92v-196q0-15.34-1.78-23.91a26,26,0,0,0-6.51-13,28.3,28.3,0,0,0-12.45-7.68,33.93,33.93,0,0,0-16.92-1.17c.15-5.8-.15-10.18,0-16,5.55.06,22.64.54,28.19.6l30.17.29h129.81l10.4-.24a57.38,57.38,0,0,1,6.22,6c2.59,2.89,8.29,9.82,14.68,29.48,4.43,13.62,9,28.65,3.84,32.18-.86.59-3.36.88-8.36,1.46s-7.27.84-8.39.35c-3.84-1.67-2.07-6.8-6.26-17.74a56.18,56.18,0,0,0-9.76-16.86,38,38,0,0,0-14.79-10.35q-8.88-3.55-22.48-3.55h-41.67q-20.12,0-26.33,7.69T1269.24,153v80.57a7.56,7.56,0,0,0,7.57,7.56h36.8c10.64,0,23.82-.49,29.54-1.48s10.06-2.66,13-5a16.06,16.06,0,0,0,5.62-10.06q.9-5,1.45-12a7.5,7.5,0,0,1,7-6.92c.42,0,.85,0,1.3,0h.27a7.53,7.53,0,0,1,7.38,7.95q-.35,6.76-.55,14.83-.32,11.53-.3,21.59,0,13,.3,23.07.21,7.25.57,14.49a7.54,7.54,0,0,1-7.38,8h-.29c-.47,0-.93,0-1.37,0a7.54,7.54,0,0,1-7-6.86q-.56-5.52-1.39-10a18.59,18.59,0,0,0-5.62-10.35q-4.44-4.12-13-6.21c-5.72-1.37-18.9-2.07-29.54-2.07h-36.8a7.57,7.57,0,0,0-7.57,7.57V367.89q0,17.07,5.92,23.85t21.29,6.78h61.79q14.19,0,24.55-5a56.31,56.31,0,0,0,18-13.9,86.22,86.22,0,0,0,13-20.41c5-10.85,2.93-18.62,7.51-20.19.92-.32,3.46.18,8.51,1.21,5.48,1.11,8.23,1.68,9,2.52,2.45,2.75-.7,7.34-2.94,18.68-.89,4.51-2.13,9.74-4,16.14-4.2,14.21-4.37,18.14-8.82,27.94a119.32,119.32,0,0,1-6.46,12.27c-13.73.1-27.47-1-41.21-.9H1234.34l-41.79-.29C1192.52,414.3,1192.72,413.53,1192.69,411.26Z" transform="translate(-560.27 -72.14)"/>
        <path class="cls-3" d="M1318.56,177a5.09,5.09,0,0,0,4-4.8,88.11,88.11,0,0,0-3-25.79c-2.74-10-7.79-28.41-22-35.13-3.34-1.58-8.1-2.71-12.85-4.28a99.33,99.33,0,0,0-16.56-3.72,177,177,0,0,0-27-2.34c-11.81,0-22.95,2.82-33.81,6.63a85.42,85.42,0,0,0-28.56,16.56,83.32,83.32,0,0,0-19.71,26q-7.43,15.15-7.42,34t6.85,32.56A81.76,81.76,0,0,0,1177,241a117.92,117.92,0,0,0,26.56,18,303.45,303.45,0,0,0,30.27,13.14c8.12,3,15.48,6.08,22.28,9.14a82.44,82.44,0,0,1,20.56,13.13,65.81,65.81,0,0,1,15.14,19.71q6,11.71,6,28.85,0,29.13-15.42,43.41t-44,14.28q-33.14,0-54-15.71c-13.2-9.94-21.47-24.73-26.83-46.42a4.49,4.49,0,0,0-4.5-3.4l-2.65.09c-2.83.11-3,.1-3.55.15a12.27,12.27,0,0,0-5.21,1.79c-.17,3.93-.35,9.44-.31,16.06a139.56,139.56,0,0,0,.65,15.84c.54,4.66,1.14,12.26,4,18,8.19,16.22,28.18,21.72,41.5,25.28,7.72,2.06,14.1,2.76,20.27,3.71a176.48,176.48,0,0,0,26.56,1.72,128.45,128.45,0,0,0,31.42-3.72,85,85,0,0,0,26.85-11.71,99.17,99.17,0,0,0,32.56-33.41,82.34,82.34,0,0,0,12-42.56q0-18.84-6.57-32.84a82.48,82.48,0,0,0-17.13-24.28A100.68,100.68,0,0,0,1289,251.82a243.8,243.8,0,0,0-28.28-12.28q-10.28-4-23.42-9.71a150,150,0,0,1-24.85-13.71A74.16,74.16,0,0,1,1193,197q-7.71-11.13-7.71-26a45.9,45.9,0,0,1,4.28-19.13A59.86,59.86,0,0,1,1201,135a58,58,0,0,1,16.56-12,44.77,44.77,0,0,1,19.71-4.57q17.15,0,28.85,5.14a61.44,61.44,0,0,1,19.7,13.42,66.56,66.56,0,0,1,12.86,19.14,170.05,170.05,0,0,1,7,18.73,5.09,5.09,0,0,0,5.66,3.49c1.11-.18,2.25-.38,3.4-.59S1317.34,177.28,1318.56,177Z" transform="translate(-560.27 -72.14)"/>
        <path class="cls-3" d="M1195.6,400.3a4.08,4.08,0,0,0-4-4c-9.43-.23-23.94-.18-28.72-.87q-8.3-1.17-13-5.62c-4.34-4.07-5.71-9.91-6.5-13,0-.18-.49-3.44-1.36-10a58.37,58.37,0,0,1-.45-9.53c0-.17,0-.36,0-.36v-.11c.43-6.54,0-155.54,0-196.38,0-10.25.59-14.24,1.78-20s3.34-10.05,6.5-13a24.19,24.19,0,0,1,13-6.62c4.74-.68,17.31-.47,26.26-.65a4.08,4.08,0,0,0,4-4.11c0-3,0-6.45,0-8.25,0-1.21,0-2.42,0-3.63a4.09,4.09,0,0,0-4.1-4.1c-11.39,0-28.22.12-38,.29q-16.57.3-30.76.3-12.42,0-29.28-.3c-10.09-.17-35.75-.22-49.16-.23a4.1,4.1,0,0,0-4.1,4.14c0,1.4,0,2.81,0,4,0,2,0,5.75.08,8.84a4.11,4.11,0,0,0,4,4c10.85.2,31.55,0,36.4.66,5.52.8,9.85,2.66,13,5.62s5.33,7.3,6.51,13a160.39,160.39,0,0,1,2.75,19.76,2.68,2.68,0,0,1,0,.4v196a2.82,2.82,0,0,1,0,.41,159.29,159.29,0,0,1-2.75,19.75q-1.77,8.58-6.51,13c-.79.75-3.82,3.44-13,5.62-4.15,1-21.6,2-32.14,1.91a4.09,4.09,0,0,0-4.13,4.11c0,3,0,6.55,0,8.43v2.66a4.07,4.07,0,0,0,4,4.12c14.7.24,37.31.26,44.36.22,13.39-.06,16.55-.29,30.46-.29q13,0,29.58.29c9.85.18,28.93-.5,41-.38a4.07,4.07,0,0,0,4.13-4c0-1.05,0-2.15,0-3.49C1195.67,407.21,1195.64,403.41,1195.6,400.3Z" transform="translate(-560.27 -72.14)"/>
        <path class="cls-3" d="M925.72,268c-.32-52.33,22-90,28.65-100.95a161.26,161.26,0,0,1,36.24-41.6,145.88,145.88,0,0,1,28-17.9c25.81-12,52.67-8,57.16-7.27a95,95,0,0,1,25.7,7.88c8.47,4,14.56,7,19.87,13.58,6.23,7.69,7.64,15.76,9.59,26.94a109.14,109.14,0,0,1,1.54,22.06,6.15,6.15,0,0,1-5,5.83c-1.11.21-2.27.41-3.49.57s-2.13.24-3.13.31a6.12,6.12,0,0,1-6.29-4.39,94,94,0,0,0-7-17.06,79.12,79.12,0,0,0-8.36-13.06c-2.67-3.33-11.35-14.35-26-19.53-19.89-7-38.11,1.09-43,3.28-22.57,10-32.94,30.32-39.85,43.82-6,11.78-8.5,21.35-11.46,32.74a233.13,233.13,0,0,0-7.41,55.35c-.2,15-.3,43.18,11.85,75.9,5.45,14.69,10.26,27.21,22.33,39.51,5.48,5.59,20.07,20,41.91,22.31a58.49,58.49,0,0,0,19.75-1.32,64.09,64.09,0,0,0,23.76-12.2,67.09,67.09,0,0,0,14.82-17.11,79.06,79.06,0,0,0,10.57-26.22,4.21,4.21,0,0,1,2.92-3.2,26.51,26.51,0,0,1,4.23-.9,26.24,26.24,0,0,1,5.82-.12,4.23,4.23,0,0,1,3.83,3.69,84,84,0,0,1,.27,17.12c-.63,7.26-1.54,17.69-8.19,28.89a59.09,59.09,0,0,1-17.6,18.42c-18.62,13.06-33.83,13.26-56.33,13.48-15.83.16-27.71.28-42.92-5a103.49,103.49,0,0,1-36.76-22.73A118.27,118.27,0,0,1,949.14,360c-1.54-2.65-8-14.09-14-33.9C931.93,315.47,925.88,294.84,925.72,268Z" transform="translate(-560.27 -72.14)"/>
        <path class="cls-3" d="M820.59,400.4A51.56,51.56,0,0,0,834.46,399c5-1.21,9.36-2.19,13-5.61q4.74-4.42,6.51-13t1.78-23.91v-196q0-15.34-1.78-23.91t-6.51-13c-3.57-3.35-7.59-4.28-13-5.6a57.48,57.48,0,0,0-16.53-1.52q.24-8.7.46-17.4l27.9.29,30.17.3h50l111.16,1.14c1.31,2,3.06,4.71,5,8.08a131.9,131.9,0,0,1,11,26c4.31,13.79,9,28.64,3.84,32.18-.86.59-3.36.88-8.36,1.46-4.85.56-7.27.85-8.39.35-3.84-1.67-2.07-6.8-6.27-17.74a55.89,55.89,0,0,0-9.76-16.86,37.86,37.86,0,0,0-14.78-10.35,57.32,57.32,0,0,0-20.48-3.55H931.69c-15.41,0-24.18,2.57-28.32,7.69s-6.21,13-6.21,23.66V232.3a7.57,7.57,0,0,0,7.57,7.57h36.8c10.64,0,29.82-.49,35.54-1.48s10.06-2.67,13-5a16.08,16.08,0,0,0,5.62-10.06q.88-5,1.45-12a7.5,7.5,0,0,1,7-6.92c.42,0,.85,0,1.3,0h.27a7.52,7.52,0,0,1,7.38,7.94q-.35,6.77-.56,14.83-.3,11.53-.29,21.59,0,13,.29,23.07.21,7.24.58,14.5a7.54,7.54,0,0,1-7.38,8h-.29c-.48,0-.93,0-1.37,0a7.54,7.54,0,0,1-7-6.86q-.55-5.52-1.39-10a18.68,18.68,0,0,0-5.62-10.36q-4.44-4.12-13-6.21c-5.72-1.37-24.9-2.07-35.54-2.07h-36.8a7.57,7.57,0,0,0-7.57,7.57V366.58q0,17.09,5.92,23.85t21.29,6.78h67.79q14.19,0,24.55-5a56,56,0,0,0,18-13.9,86,86,0,0,0,13-20.41c5-10.85,2.92-18.62,7.5-20.19.93-.32,3.47.19,8.52,1.21,5.47,1.11,8.23,1.68,9,2.52,2.45,2.75-.7,7.34-2.94,18.68-.89,4.51-2.13,9.74-4,16.14-4.2,14.21-4.37,18.14-8.82,27.94a128.45,128.45,0,0,1-6.53,12.71c-13.74.1-27.4-.25-41.14-.15H820.7Q820.64,408.57,820.59,400.4Z" transform="translate(-560.27 -72.14)"/>
        <path class="cls-3" d="M694,99.86c0,2.58.07,5.23.16,7.92.09,2.46.19,4.88.33,7.25l.34.29c7-.51,27.22-1.15,34.9,10.31,4.44,6.62,5.25,18.13,6.74,39.25h0V260c-1.34,128.55,10.81,139.32-42.08,140.53a2.08,2.08,0,0,0-.94.46c-1.34,1-1.29,2.83-1.25,7.87,0,4.58,0,6.35,1.31,7.23h0a1.85,1.85,0,0,0,.93.4c.62.08,102.51.25,126,.29l.06-16.21,0,0H806.19c-5.71-.51-15.05-2.37-21.83-10a15.87,15.87,0,0,1-1.39-1.72c-2.33-3.35-5.05-10.79-5.05-36.45v-78a1.15,1.15,0,0,1,1-1.14c83.37-12.5,86.25,119.85,154,140.75,12.22,3.78,48.89,7.47,39.43-11.3a1.22,1.22,0,0,0-1.17-.65c-39.76,2.44-86.26-110.84-106.37-135.66a1.16,1.16,0,0,1,.52-1.83c71.39-25.56,67.92-88.86,56.71-117.3-6.19-15.7-12.88-28.67-37.85-40.26-16.74-7.76-34.93-7.66-51.12-7.56-6.9,0-13.75.52-30.4.57-11.32,0-19.64-.15-22.63-.21-12.93-.27-36.9-.43-85.51.14m84.87,35.75a1.13,1.13,0,0,1,.44-.87c5.52-4.25,36.52-26.94,64.58-16.56,37.87,14,53.38,81.94,22.32,118.77-20.31,24.08-57.42,20.48-87.63,20.84a1.16,1.16,0,0,1-1.18-1.15q-.57-29.88-.19-61.45Q778.08,164.61,779.36,135.6Z" transform="translate(-560.27 -72.14)"/>
      </g>
      <g>
        <path class="cls-4" d="M1192.69,411.26c0-3.36-.11-7.52-.17-10.87,3.24.3,8.2,1.22,14-.09,4.57-1,9.16-2,13-5.61q4.74-4.43,6.51-13t1.78-23.92v-196q0-15.34-1.78-23.91a26,26,0,0,0-6.51-13,28.3,28.3,0,0,0-12.45-7.68,33.93,33.93,0,0,0-16.92-1.17c.15-5.8-.15-10.18,0-16,5.55.06,22.64.54,28.19.6l30.17.29h129.81l10.4-.24a57.38,57.38,0,0,1,6.22,6c2.59,2.89,8.29,9.82,14.68,29.48,4.43,13.62,9,28.65,3.84,32.18-.86.59-3.36.88-8.36,1.46s-7.27.84-8.39.35c-3.84-1.67-2.07-6.8-6.26-17.74a56.18,56.18,0,0,0-9.76-16.86,38,38,0,0,0-14.79-10.35q-8.88-3.55-22.48-3.55h-41.67q-20.12,0-26.33,7.69T1269.24,153v80.57a7.56,7.56,0,0,0,7.57,7.56h36.8c10.64,0,23.82-.49,29.54-1.48s10.06-2.66,13-5a16.06,16.06,0,0,0,5.62-10.06q.9-5,1.45-12a7.5,7.5,0,0,1,7-6.92c.42,0,.85,0,1.3,0h.27a7.53,7.53,0,0,1,7.38,7.95q-.35,6.76-.55,14.83-.32,11.53-.3,21.59,0,13,.3,23.07.21,7.25.57,14.49a7.54,7.54,0,0,1-7.38,8h-.29c-.47,0-.93,0-1.37,0a7.54,7.54,0,0,1-7-6.86q-.56-5.52-1.39-10a18.59,18.59,0,0,0-5.62-10.35q-4.44-4.12-13-6.21c-5.72-1.37-18.9-2.07-29.54-2.07h-36.8a7.57,7.57,0,0,0-7.57,7.57V367.89q0,17.07,5.92,23.85t21.29,6.78h61.79q14.19,0,24.55-5a56.31,56.31,0,0,0,18-13.9,86.22,86.22,0,0,0,13-20.41c5-10.85,2.93-18.62,7.51-20.19.92-.32,3.46.18,8.51,1.21,5.48,1.11,8.23,1.68,9,2.52,2.45,2.75-.7,7.34-2.94,18.68-.89,4.51-2.13,9.74-4,16.14-4.2,14.21-4.37,18.14-8.82,27.94a119.32,119.32,0,0,1-6.46,12.27c-13.73.1-27.47-1-41.21-.9H1234.34l-41.79-.29C1192.52,414.3,1192.72,413.53,1192.69,411.26Z" transform="translate(-560.27 -72.14)"/>
        <path class="cls-5" d="M1318.56,177a5.09,5.09,0,0,0,4-4.8,88.11,88.11,0,0,0-3-25.79c-2.74-10-7.79-28.41-22-35.13-3.34-1.58-8.1-2.71-12.85-4.28a99.33,99.33,0,0,0-16.56-3.72,177,177,0,0,0-27-2.34c-11.81,0-22.95,2.82-33.81,6.63a85.42,85.42,0,0,0-28.56,16.56,83.32,83.32,0,0,0-19.71,26q-7.43,15.15-7.42,34t6.85,32.56A81.76,81.76,0,0,0,1177,241a117.92,117.92,0,0,0,26.56,18,303.45,303.45,0,0,0,30.27,13.14c8.12,3,15.48,6.08,22.28,9.14a82.44,82.44,0,0,1,20.56,13.13,65.81,65.81,0,0,1,15.14,19.71q6,11.71,6,28.85,0,29.13-15.42,43.41t-44,14.28q-33.14,0-54-15.71c-13.2-9.94-21.47-24.73-26.83-46.42a4.49,4.49,0,0,0-4.5-3.4l-2.65.09c-2.83.11-3,.1-3.55.15a12.27,12.27,0,0,0-5.21,1.79c-.17,3.93-.35,9.44-.31,16.06a139.56,139.56,0,0,0,.65,15.84c.54,4.66,1.14,12.26,4,18,8.19,16.22,28.18,21.72,41.5,25.28,7.72,2.06,14.1,2.76,20.27,3.71a176.48,176.48,0,0,0,26.56,1.72,128.45,128.45,0,0,0,31.42-3.72,85,85,0,0,0,26.85-11.71,99.17,99.17,0,0,0,32.56-33.41,82.34,82.34,0,0,0,12-42.56q0-18.84-6.57-32.84a82.48,82.48,0,0,0-17.13-24.28A100.68,100.68,0,0,0,1289,251.82a243.8,243.8,0,0,0-28.28-12.28q-10.28-4-23.42-9.71a150,150,0,0,1-24.85-13.71A74.16,74.16,0,0,1,1193,197q-7.71-11.13-7.71-26a45.9,45.9,0,0,1,4.28-19.13A59.86,59.86,0,0,1,1201,135a58,58,0,0,1,16.56-12,44.77,44.77,0,0,1,19.71-4.57q17.15,0,28.85,5.14a61.44,61.44,0,0,1,19.7,13.42,66.56,66.56,0,0,1,12.86,19.14,170.05,170.05,0,0,1,7,18.73,5.09,5.09,0,0,0,5.66,3.49c1.11-.18,2.25-.38,3.4-.59S1317.34,177.28,1318.56,177Z" transform="translate(-560.27 -72.14)"/>
        <path class="cls-6" d="M1195.6,400.3a4.08,4.08,0,0,0-4-4c-9.43-.23-23.94-.18-28.72-.87q-8.3-1.17-13-5.62c-4.34-4.07-5.71-9.91-6.5-13,0-.18-.49-3.44-1.36-10a58.37,58.37,0,0,1-.45-9.53c0-.17,0-.36,0-.36v-.11c.43-6.54,0-155.54,0-196.38,0-10.25.59-14.24,1.78-20s3.34-10.05,6.5-13a24.19,24.19,0,0,1,13-6.62c4.74-.68,17.31-.47,26.26-.65a4.08,4.08,0,0,0,4-4.11c0-3,0-6.45,0-8.25,0-1.21,0-2.42,0-3.63a4.09,4.09,0,0,0-4.1-4.1c-11.39,0-28.22.12-38,.29q-16.57.3-30.76.3-12.42,0-29.28-.3c-10.09-.17-35.75-.22-49.16-.23a4.1,4.1,0,0,0-4.1,4.14c0,1.4,0,2.81,0,4,0,2,0,5.75.08,8.84a4.11,4.11,0,0,0,4,4c10.85.2,31.55,0,36.4.66,5.52.8,9.85,2.66,13,5.62s5.33,7.3,6.51,13a160.39,160.39,0,0,1,2.75,19.76,2.68,2.68,0,0,1,0,.4v196a2.82,2.82,0,0,1,0,.41,159.29,159.29,0,0,1-2.75,19.75q-1.77,8.58-6.51,13c-.79.75-3.82,3.44-13,5.62-4.15,1-21.6,2-32.14,1.91a4.09,4.09,0,0,0-4.13,4.11c0,3,0,6.55,0,8.43v2.66a4.07,4.07,0,0,0,4,4.12c14.7.24,37.31.26,44.36.22,13.39-.06,16.55-.29,30.46-.29q13,0,29.58.29c9.85.18,28.93-.5,41-.38a4.07,4.07,0,0,0,4.13-4c0-1.05,0-2.15,0-3.49C1195.67,407.21,1195.64,403.41,1195.6,400.3Z" transform="translate(-560.27 -72.14)"/>
        <path class="cls-7" d="M925.72,268c-.32-52.33,22-90,28.65-100.95a161.26,161.26,0,0,1,36.24-41.6,145.88,145.88,0,0,1,28-17.9c25.81-12,52.67-8,57.16-7.27a95,95,0,0,1,25.7,7.88c8.47,4,14.56,7,19.87,13.58,6.23,7.69,7.64,15.76,9.59,26.94a109.14,109.14,0,0,1,1.54,22.06,6.15,6.15,0,0,1-5,5.83c-1.11.21-2.27.41-3.49.57s-2.13.24-3.13.31a6.12,6.12,0,0,1-6.29-4.39,94,94,0,0,0-7-17.06,79.12,79.12,0,0,0-8.36-13.06c-2.67-3.33-11.35-14.35-26-19.53-19.89-7-38.11,1.09-43,3.28-22.57,10-32.94,30.32-39.85,43.82-6,11.78-8.5,21.35-11.46,32.74a233.13,233.13,0,0,0-7.41,55.35c-.2,15-.3,43.18,11.85,75.9,5.45,14.69,10.26,27.21,22.33,39.51,5.48,5.59,20.07,20,41.91,22.31a58.49,58.49,0,0,0,19.75-1.32,64.09,64.09,0,0,0,23.76-12.2,67.09,67.09,0,0,0,14.82-17.11,79.06,79.06,0,0,0,10.57-26.22,4.21,4.21,0,0,1,2.92-3.2,26.51,26.51,0,0,1,4.23-.9,26.24,26.24,0,0,1,5.82-.12,4.23,4.23,0,0,1,3.83,3.69,84,84,0,0,1,.27,17.12c-.63,7.26-1.54,17.69-8.19,28.89a59.09,59.09,0,0,1-17.6,18.42c-18.62,13.06-33.83,13.26-56.33,13.48-15.83.16-27.71.28-42.92-5a103.49,103.49,0,0,1-36.76-22.73A118.27,118.27,0,0,1,949.14,360c-1.54-2.65-8-14.09-14-33.9C931.93,315.47,925.88,294.84,925.72,268Z" transform="translate(-560.27 -72.14)"/>
        <path class="cls-8" d="M820.59,400.4A51.56,51.56,0,0,0,834.46,399c5-1.21,9.36-2.19,13-5.61q4.74-4.42,6.51-13t1.78-23.91v-196q0-15.34-1.78-23.91t-6.51-13c-3.57-3.35-7.59-4.28-13-5.6a57.48,57.48,0,0,0-16.53-1.52q.24-8.7.46-17.4l27.9.29,30.17.3h50l111.16,1.14c1.31,2,3.06,4.71,5,8.08a131.9,131.9,0,0,1,11,26c4.31,13.79,9,28.64,3.84,32.18-.86.59-3.36.88-8.36,1.46-4.85.56-7.27.85-8.39.35-3.84-1.67-2.07-6.8-6.27-17.74a55.89,55.89,0,0,0-9.76-16.86,37.86,37.86,0,0,0-14.78-10.35,57.32,57.32,0,0,0-20.48-3.55H931.69c-15.41,0-24.18,2.57-28.32,7.69s-6.21,13-6.21,23.66V232.3a7.57,7.57,0,0,0,7.57,7.57h36.8c10.64,0,29.82-.49,35.54-1.48s10.06-2.67,13-5a16.08,16.08,0,0,0,5.62-10.06q.88-5,1.45-12a7.5,7.5,0,0,1,7-6.92c.42,0,.85,0,1.3,0h.27a7.52,7.52,0,0,1,7.38,7.94q-.35,6.77-.56,14.83-.3,11.53-.29,21.59,0,13,.29,23.07.21,7.24.58,14.5a7.54,7.54,0,0,1-7.38,8h-.29c-.48,0-.93,0-1.37,0a7.54,7.54,0,0,1-7-6.86q-.55-5.52-1.39-10a18.68,18.68,0,0,0-5.62-10.36q-4.44-4.12-13-6.21c-5.72-1.37-24.9-2.07-35.54-2.07h-36.8a7.57,7.57,0,0,0-7.57,7.57V366.58q0,17.09,5.92,23.85t21.29,6.78h67.79q14.19,0,24.55-5a56,56,0,0,0,18-13.9,86,86,0,0,0,13-20.41c5-10.85,2.92-18.62,7.5-20.19.93-.32,3.47.19,8.52,1.21,5.47,1.11,8.23,1.68,9,2.52,2.45,2.75-.7,7.34-2.94,18.68-.89,4.51-2.13,9.74-4,16.14-4.2,14.21-4.37,18.14-8.82,27.94a128.45,128.45,0,0,1-6.53,12.71c-13.74.1-27.4-.25-41.14-.15H820.7Q820.64,408.57,820.59,400.4Z" transform="translate(-560.27 -72.14)"/>
        <path class="cls-9" d="M694,99.86c0,2.58.07,5.23.16,7.92.09,2.46.19,4.88.33,7.25l.34.29c7-.51,27.22-1.15,34.9,10.31,4.44,6.62,5.25,18.13,6.74,39.25h0V260c-1.34,128.55,10.81,139.32-42.08,140.53a2.08,2.08,0,0,0-.94.46c-1.34,1-1.29,2.83-1.25,7.87,0,4.58,0,6.35,1.31,7.23h0a1.85,1.85,0,0,0,.93.4c.62.08,102.51.25,126,.29l.06-16.21,0,0H806.19c-5.71-.51-15.05-2.37-21.83-10a15.87,15.87,0,0,1-1.39-1.72c-2.33-3.35-5.05-10.79-5.05-36.45v-78a1.15,1.15,0,0,1,1-1.14c83.37-12.5,86.25,119.85,154,140.75,12.22,3.78,48.89,7.47,39.43-11.3a1.22,1.22,0,0,0-1.17-.65c-39.76,2.44-86.26-110.84-106.37-135.66a1.16,1.16,0,0,1,.52-1.83c71.39-25.56,67.92-88.86,56.71-117.3-6.19-15.7-12.88-28.67-37.85-40.26-16.74-7.76-34.93-7.66-51.12-7.56-6.9,0-13.75.52-30.4.57-11.32,0-19.64-.15-22.63-.21-12.93-.27-36.9-.43-85.51.14m84.87,35.75a1.13,1.13,0,0,1,.44-.87c5.52-4.25,36.52-26.94,64.58-16.56,37.87,14,53.38,81.94,22.32,118.77-20.31,24.08-57.42,20.48-87.63,20.84a1.16,1.16,0,0,1-1.18-1.15q-.57-29.88-.19-61.45Q778.08,164.61,779.36,135.6Z" transform="translate(-560.27 -72.14)"/>
      </g>
      <g>
        <g>
          <line class="cls-10" x1="23.91" y1="70.45" x2="74.77" y2="70.45"/>
          <polygon points="25.31 71.2 25.39 70.98 23.93 70.45 25.39 69.92 25.31 69.7 23.24 70.45 25.31 71.2"/>
          <polygon points="73.37 71.2 73.29 70.98 74.75 70.45 73.29 69.92 73.37 69.7 75.44 70.45 73.37 71.2"/>
        </g>
        <g>
          <line class="cls-10" x1="77.3" y1="233.59" x2="117.51" y2="233.59"/>
          <polygon points="78.69 234.35 78.78 234.13 77.32 233.59 78.78 233.06 78.69 232.84 76.63 233.59 78.69 234.35"/>
          <polygon points="116.11 234.35 116.03 234.13 117.48 233.59 116.03 233.06 116.11 232.84 118.18 233.59 116.11 234.35"/>
        </g>
        <g>
          <line class="cls-10" x1="25.49" y1="302.85" x2="73.99" y2="302.85"/>
          <polygon points="26.89 303.6 26.97 303.38 25.52 302.85 26.97 302.32 26.89 302.1 24.83 302.85 26.89 303.6"/>
          <polygon points="72.59 303.6 72.51 303.38 73.96 302.85 72.51 302.32 72.59 302.1 74.66 302.85 72.59 303.6"/>
        </g>
        <g>
          <line class="cls-10" x1="119.81" y1="301.67" x2="168.3" y2="301.67"/>
          <polygon points="121.21 302.42 121.29 302.19 119.83 301.67 121.29 301.13 121.21 300.91 119.14 301.67 121.21 302.42"/>
          <polygon points="166.9 302.42 166.82 302.19 168.28 301.67 166.82 301.13 166.9 300.91 168.97 301.67 166.9 302.42"/>
        </g>
        <g>
          <line class="cls-10" x1="228.47" y1="110.66" x2="272.23" y2="110.66"/>
          <polygon points="229.87 111.41 229.95 111.19 228.49 110.66 229.95 110.13 229.87 109.91 227.8 110.66 229.87 111.41"/>
          <polygon points="270.83 111.41 270.75 111.19 272.2 110.66 270.75 110.13 270.83 109.91 272.9 110.66 270.83 111.41"/>
        </g>
        <g>
          <line class="cls-10" x1="33.63" y1="36.07" x2="76.2" y2="36.07"/>
          <polygon points="35.03 36.83 35.11 36.6 33.65 36.07 35.11 35.54 35.03 35.32 32.96 36.07 35.03 36.83"/>
          <polygon points="74.81 36.83 74.72 36.6 76.18 36.07 74.72 35.54 74.81 35.32 76.87 36.07 74.81 36.83"/>
        </g>
        <g>
          <line class="cls-10" x1="91.74" y1="45.02" x2="92.33" y2="325.84"/>
          <polygon points="91 46.42 91.22 46.5 91.75 45.05 92.28 46.5 92.5 46.42 91.74 44.35 91 46.42"/>
          <polygon points="91.57 324.44 91.79 324.36 92.33 325.82 92.85 324.36 93.08 324.44 92.33 326.51 91.57 324.44"/>
        </g>
        <g>
          <line class="cls-10" x1="273.35" y1="137.51" x2="274.35" y2="326.98"/>
          <polygon points="272.6 138.91 272.83 139 273.35 137.54 273.89 138.99 274.11 138.91 273.35 136.84 272.6 138.91"/>
          <rect x="833.85" y="399" width="1.54" height="0.24" transform="translate(-562.32 -67.82) rotate(-0.3)"/>
        </g>
        <text class="cls-11" transform="translate(44.01 69.15)"><tspan class="cls-12">0</tspan><tspan x="3.13" y="0">.</tspan><tspan class="cls-13" x="4.61" y="0">4</tspan><tspan class="cls-14" x="7.76" y="0">4</tspan></text>
        <text class="cls-11" transform="translate(44.01 301.66)"><tspan class="cls-12">0</tspan><tspan x="3.13" y="0">.</tspan><tspan class="cls-13" x="4.61" y="0">4</tspan><tspan x="7.76" y="0">2</tspan></text>
        <text class="cls-11" transform="translate(139.56 300.3)"><tspan class="cls-12">0</tspan><tspan x="3.13" y="0">.</tspan><tspan class="cls-13" x="4.61" y="0">4</tspan><tspan x="7.76" y="0">2</tspan></text>
        <text class="cls-11" transform="translate(92.33 232.59)"><tspan class="cls-12">0</tspan><tspan x="3.13" y="0">.</tspan><tspan class="cls-12" x="4.61" y="0">3</tspan><tspan x="7.31" y="0">5</tspan></text>
        <text class="cls-11" transform="translate(245.93 109.5)"><tspan class="cls-12">0</tspan><tspan x="3.13" y="0" xml:space="preserve">.38     </tspan></text>
        <text class="cls-11" transform="translate(50.41 35.37)"><tspan class="cls-12">0</tspan><tspan x="3.13" y="0">.</tspan><tspan class="cls-12" x="4.61" y="0">3</tspan><tspan x="7.31" y="0">7</tspan></text>
        <text class="cls-11" transform="translate(260.98 251.84)">1.<tspan class="cls-15" x="2.87" y="0">6</tspan><tspan x="5.81" y="0">0</tspan></text>
        <g>
          <line class="cls-16" x1="108.19" y1="36.31" x2="134.96" y2="60.85"/>
          <path d="M669,110.86a.14.14,0,0,0,.1-.18l-.58-2.18,2.23.39a.15.15,0,0,0,.17-.12.15.15,0,0,0-.12-.17l-2.46-.44a.13.13,0,0,0-.13,0,.15.15,0,0,0,0,.14l.65,2.41a.16.16,0,0,0,0,.07A.14.14,0,0,0,669,110.86Z" transform="translate(-560.27 -72.14)"/>
        </g>
        <g>
          <line class="cls-16" x1="264.1" y1="198.31" x2="236.26" y2="228.01"/>
          <path d="M822,271a.15.15,0,0,0,.18.11l2.19-.57-.42,2.23a.15.15,0,0,0,.12.17.16.16,0,0,0,.18-.12l.46-2.45a.13.13,0,0,0,0-.13.14.14,0,0,0-.14,0l-2.41.62s-.06,0-.07,0A.15.15,0,0,0,822,271Z" transform="translate(-560.27 -72.14)"/>
        </g>
        <g>
          <line class="cls-16" x1="159.06" y1="337.44" x2="179.11" y2="316.05"/>
          <path d="M721.75,409.07a.14.14,0,0,0-.18-.1l-2.19.56.42-2.23a.15.15,0,0,0-.12-.17.15.15,0,0,0-.17.12l-.46,2.45a.15.15,0,0,0,0,.14.17.17,0,0,0,.14,0l2.41-.62a.2.2,0,0,0,.08,0A.17.17,0,0,0,721.75,409.07Z" transform="translate(-560.27 -72.14)"/>
        </g>
        <text class="cls-11" transform="translate(135.68 61.51)"><tspan class="cls-12">0</tspan><tspan x="3.13" y="0">.</tspan><tspan class="cls-17" x="4.61" y="0">1</tspan><tspan x="5.81" y="0">3</tspan></text>
        <text class="cls-11" transform="translate(225.54 229.64)"><tspan class="cls-12">0</tspan><tspan x="3.13" y="0">.17</tspan></text>
        <text class="cls-11" transform="translate(275.37 57.99)">1.32</text>
        <text class="cls-11" transform="translate(94.62 98.91)">2.38</text>
        <text class="cls-11" transform="translate(180.68 317.09)"><tspan class="cls-12">0</tspan><tspan x="3.13" y="0">.14</tspan></text>
        <text class="cls-11" transform="translate(166.58 82.47)"><tspan class="cls-12">0</tspan><tspan x="3.13" y="0">.</tspan><tspan class="cls-18" x="4.61" y="0">7</tspan><tspan x="6.87" y="0">8</tspan></text>
        <text class="cls-11" transform="translate(163.34 170.26)"><tspan class="cls-12">0</tspan><tspan x="3.13" y="0">.41</tspan></text>
      </g>
      <g>
        <g>
          <g class="cls-19">
            <path class="cls-20" d="M594.05,115.61a73.43,73.43,0,0,1,20.7,1.78c5.79,1.35,9.63,2.36,13.31,5.62,3.35,2.95,5.62,7.3,6.81,13s1.77,13.71,1.77,24V356.36q0,15.39-1.77,24t-6.81,13q-5,4.44-13.31,5.62t-20.7,1.77c-.2,2.3-.32,4.76-.34,7.39,0,3.08.12,5.95.34,8.59H727.73c-.22-2.64-.36-5.51-.34-8.59,0-2.63.15-5.09.34-7.39q-14.19-.57-23.66-1.77t-15.38-5.62q-5.91-4.44-8.28-13t-2.36-24V273a83.56,83.56,0,0,0,17.45,4.14,176.59,176.59,0,0,0,22.18,1.18q33.72,0,55.9-9.76T809.07,244A88.23,88.23,0,0,0,828,211.44q5.61-17.74,5.62-33.13,0-10.63-4.44-24.84t-16.27-26.91a81.34,81.34,0,0,0-33.42-21.3c-11.63-4.14-26.31-4.31-55.65-4.74-11.26-.16-10.11.14-33.12,0-10.41-.06-15.09-.17-34-.29-3,0-8.26-.08-15.55-.12S628.66,100,626,99.94c-7.07-.1-17.57-.21-31.94-.3-.21,2.46-.34,5.12-.34,8S593.84,113.15,594.05,115.61Zm84,29.58q-.18-14.64-.34-29.29a192.92,192.92,0,0,1,20.11-2.37c14.53-.94,25,0,35.08,1a102.65,102.65,0,0,1,12.28,2,49.43,49.43,0,0,1,21.6,10.65q9.45,8,15.37,22.47t5.92,37.57q0,39.63-18.63,56.78t-54.13,17.16q-9.46,0-21.29-.6c-7.89-.38-13.22-1-16-1.77Z" transform="translate(-560.27 -72.14)"/>
          </g>
          <g class="cls-21">
            <path class="cls-22" d="M594.05,115.61a73.43,73.43,0,0,1,20.7,1.78c5.79,1.35,9.63,2.36,13.31,5.62,3.35,2.95,5.62,7.3,6.81,13s1.77,13.71,1.77,24V356.36q0,15.39-1.77,24t-6.81,13q-5,4.44-13.31,5.62t-20.7,1.77c-.2,2.3-.32,4.76-.34,7.39,0,3.08.12,5.95.34,8.59H727.73c-.22-2.64-.36-5.51-.34-8.59,0-2.63.15-5.09.34-7.39q-14.19-.57-23.66-1.77t-15.38-5.62q-5.91-4.44-8.28-13t-2.36-24V273a83.56,83.56,0,0,0,17.45,4.14,176.59,176.59,0,0,0,22.18,1.18q33.72,0,55.9-9.76T809.07,244A88.23,88.23,0,0,0,828,211.44q5.61-17.74,5.62-33.13,0-10.63-4.44-24.84t-16.27-26.91a81.34,81.34,0,0,0-33.42-21.3c-11.63-4.14-26.31-4.31-55.65-4.74-11.26-.16-10.11.14-33.12,0-10.41-.06-15.09-.17-34-.29-3,0-8.26-.08-15.55-.12S628.66,100,626,99.94c-7.07-.1-17.57-.21-31.94-.3-.21,2.46-.34,5.12-.34,8S593.84,113.15,594.05,115.61Zm84,29.58q-.18-14.64-.34-29.29a192.92,192.92,0,0,1,20.11-2.37c14.53-.94,25,0,35.08,1a102.65,102.65,0,0,1,12.28,2,49.43,49.43,0,0,1,21.6,10.65q9.45,8,15.37,22.47t5.92,37.57q0,39.63-18.63,56.78t-54.13,17.16q-9.46,0-21.29-.6c-7.89-.38-13.22-1-16-1.77Z" transform="translate(-560.27 -72.14)"/>
          </g>
        </g>
        <circle class="cls-16" cx="50" cy="301.67" r="25.44"/>
        <circle class="cls-16" cx="144.05" cy="301.07" r="25.44"/>
        <path class="cls-23" d="M613.82,99.34" transform="translate(-560.27 -72.14)"/>
        <circle class="cls-16" cx="49.34" cy="70.45" r="26.1"/>
        <line class="cls-24" x1="16.37" y1="27.79" x2="274.19" y2="27.79"/>
        <line class="cls-24" x1="16.37" y1="44.35" x2="274.19" y2="44.35"/>
        <line class="cls-16" x1="117.44" y1="13.41" x2="117.44" y2="355.4"/>
        <line class="cls-16" x1="13.57" y1="344.56" x2="183.41" y2="344.56"/>
        <line class="cls-16" x1="76.62" y1="13.41" x2="76.62" y2="355.4"/>
        <line class="cls-16" x1="16.37" y1="44.35" x2="274.19" y2="44.35"/>
        <line class="cls-16" x1="34.03" y1="205.25" x2="274.19" y2="205.25"/>
        <line class="cls-16" x1="33.44" y1="136.84" x2="273.35" y2="136.84"/>
        <line class="cls-16" x1="118.03" y1="136.84" x2="188" y2="44.35"/>
        <line class="cls-16" x1="53.55" y1="186.03" x2="273.35" y2="184.41"/>
        <line class="cls-16" x1="118.03" y1="136.84" x2="183.41" y2="186.03"/>
        <line class="cls-16" x1="1.07" y1="27.79" x2="291.8" y2="27.79"/>
        <line class="cls-16" x1="1.07" y1="344.56" x2="291.8" y2="344.56"/>
        <line class="cls-16" x1="273.35" y1="10.35" x2="273.35" y2="363.05"/>
        <line class="cls-16" x1="33.44" x2="33.44" y2="368.41"/>
        <line class="cls-16" y1="328.24" x2="286.9" y2="328.24"/>
        <line class="cls-16" x1="1.07" y1="44.35" x2="291.8" y2="44.35"/>
        <line class="cls-16" x1="166.58" y1="267.66" x2="166.58" y2="359.99"/>
        <line class="cls-16" x1="33.44" y1="267.66" x2="33.44" y2="368.41"/>
        <path d="M894.67,95.62" transform="translate(-560.27 -72.14)"/>
        <path d="M859.35,409.05" transform="translate(-560.27 -72.14)"/>
        <path class="cls-25" d="M837.66,418.46" transform="translate(-560.27 -72.14)"/>
        <path class="cls-25" d="M1017.61,441.32" transform="translate(-560.27 -72.14)"/>
        <path class="cls-25" d="M1022.25,172.77" transform="translate(-560.27 -72.14)"/>
        <path class="cls-26" d="M1091.59,296.72" transform="translate(-560.27 -72.14)"/>
      </g>
    </g>
  </g>
</svg>
