<?xml version="1.0" encoding="iso-8859-1"?>
<!-- Generator: Adobe Illustrator 19.0.0, SVG Export Plug-In . SVG Version: 6.00 Build 0)  -->
<svg version="1.1" id="Layer_1" xmlns="http://www.w3.org/2000/svg" xmlns:xlink="http://www.w3.org/1999/xlink" x="0px" y="0px"
	 viewBox="0 0 512.005 512.005" style="enable-background:new 0 0 512.005 512.005;" xml:space="preserve">
<g>
	<g>
		<g>
			<polygon fill="#E2E1EA" points="201.671,341.924 304.071,349.237 304.071,332.213 201.671,324.9 			"/>
			<polygon fill="#E2E1EA" points="201.671,376.057 304.071,383.37 304.071,366.346 201.671,359.033 			"/>
			<polygon fill="#E2E1EA" points="201.671,307.79 304.071,315.104 304.071,298.08 201.671,290.767 			"/>
			<polygon fill="#E2E1EA" points="201.671,273.657 304.071,280.97 304.071,263.946 201.671,256.633 			"/>
			<polygon fill="#E2E1EA" points="201.671,205.391 304.071,212.704 304.071,195.68 201.671,188.366 			"/>
			<polygon fill="#E2E1EA" points="201.671,239.524 304.071,246.837 304.071,229.813 201.671,222.5 			"/>
			<path fill="#E2E1EA" d="M379.363,10.786C376.385,4.13,370.019,0,362.766,0h-83.627c-3.063,0-5.897,1.647-7.407,4.301l-7.296,12.766h-24.235
				l-7.287-12.766C231.395,1.647,228.571,0,225.507,0h-76.39c-6.835,0-13.005,3.772-16.094,9.839
				c-3.14,6.161-2.551,13.483,1.545,19.115c10.411,14.345,25.088,26.658,39.211,38.05c17.468,14.08,27.895,36.821,27.895,60.834
				v43.418l102.4,7.313v-50.731c0-24.013,10.419-46.754,27.887-60.834c3.413-2.748,7.339-5.675,11.494-8.781
				c11.059-8.26,23.595-17.621,32.981-28.169C381.181,24.721,382.307,17.34,379.363,10.786z"/>
			<path fill="#E2E1EA" d="M201.671,452.272c0,1.997,0.7,3.925,1.971,5.461l42.667,51.2c1.63,1.946,4.028,3.072,6.562,3.072
				c2.534,0,4.932-1.126,6.562-3.072l42.667-51.2c1.271-1.536,1.971-3.464,1.971-5.461v-17.655l-102.4-7.313V452.272z"/>
			<polygon fill="#E2E1EA" points="201.671,410.193 304.071,417.506 304.071,400.482 201.671,393.169 			"/>
		</g>
	</g>
</g>
<g>
</g>
<g>
</g>
<g>
</g>
<g>
</g>
<g>
</g>
<g>
</g>
<g>
</g>
<g>
</g>
<g>
</g>
<g>
</g>
<g>
</g>
<g>
</g>
<g>
</g>
<g>
</g>
<g>
</g>
</svg>
